# xmcd
#
# Track frame offsets:
#	150
#	21118
#	35945
#	49518
#	62153
#	75685
#	92321
#	101529
#	110177
#	123361
#	134094
#	151634
#	165333
#	176981
#	190089
#	235531
#	248884
#	262090
#	274928
#	290820
#
# Disc length: 4049 seconds
#
# Revision: 0
# Processed by: cddbd v1.5.2PL0 Copyright (c) Steve Scherf et al.
# Submitted via: dBpowerAMP V4.0
#
DISCID=1c0fcf14
DTITLE=20 Hits Blues and Soul - Black is Black
DYEAR=1900
DGENRE=Blues+Soul
TTITLE0=01 - George Williams - Unchain' My Heart
TTITLE1=02 - George MC Rae - Rock Your Baby
TTITLE2=03 - Sly and The Family Stone - Watermelon Man
TTITLE3=04 - Bob and Earl - Harlem Shuffle
TTITLE4=05 - Eddie Floyd - Knock On Wood
TTITLE5=06 - Solomon Burke - Hold On
TTITLE6=07 - Al Jarreau - Grandma's Hand
TTITLE7=08 - John Lee Hooker - Hobos Blues
TTITLE8=09 - Muddy Waters - Close To You
TTITLE9=10 - James Brown - Pap's Got A Brand New Bag (live)
TTITLE10=11 - Pinetop Perkins - High Hell Sneakers
TTITLE11=12 - Ike and Tina Turner - It's Gonna Work Out Fine
TTITLE12=13 - Sam and Dave - Soul Man
TTITLE13=14 - The Drifters - On Broadway
TTITLE14=15 - Marvin Gaye - Sexual Healing (live)
TTITLE15=16 - Ben E. King - Stand By Me
TTITLE16=17 - Clarence Carter - Patches
TTITLE17=18 - Howling Wolf - Worried About You
TTITLE18=19 - Rufus Thomas - If There were No Music
TTITLE19=20 - Elmore James - Dust My Broom
EXTD=
EXTT0=
EXTT1=
EXTT2=
EXTT3=
EXTT4=
EXTT5=
EXTT6=
EXTT7=
EXTT8=
EXTT9=
EXTT10=
EXTT11=
EXTT12=
EXTT13=
EXTT14=
EXTT15=
EXTT16=
EXTT17=
EXTT18=
EXTT19=
PLAYORDER=
